# xmcd CD database file
#
# Track frame offsets:
#	180
#	32202
#	42352
#	80008
#	120410
#	144976
#	155924
#	180343
#	212142
#	238735
#	265004
#	298827
#	321662
#
# Disc length: 4304 seconds
#
# Revision: 4
# Processed by: cddbd v1.5.2PL0 Copyright (c) Steve Scherf et al.
# Submitted via: CDex 1.70beta2
#
DISCID=c310ce0d
DTITLE=JayJayBeCe - Berlin Jazz Composers Songbook Vol. 1
DYEAR=1995
DGENRE=Jazz
TTITLE0=Out of my brothers window - Friedemann Graef
TTITLE1=No. 2 - Nikolaus Schäuble
TTITLE2=Samahdi - Lou Blackburn
TTITLE3=Sophisticated Satin Perdido - Duke Ellington
TTITLE4=Katie's Song - Nikolaus Schäuble
TTITLE5=Die Big Band, das Bariton und der Blues - Christof Griese
TTITLE6=Techno Urbana - Reimar Volker
TTITLE7=It's gone in the air - Christof Griese
TTITLE8=The other Day - Christof Griese
TTITLE9=Black Cat - Gebhard Ullmann
TTITLE10=Rialto - Nikolaus Schäuble
TTITLE11=Blues a la Quart - Christof Griese
TTITLE12=Tarzan läßt grüßen - Nikolaus Schäuble
EXTD=YEAR: 1995
EXTT0=
EXTT1=
EXTT2=
EXTT3=
EXTT4=
EXTT5=
EXTT6=
EXTT7=
EXTT8=
EXTT9=
EXTT10=
EXTT11=
EXTT12=
PLAYORDER=
